<svg xmlns="http://www.w3.org/2000/svg" width="21.847" height="16.385" viewBox="0 0 21.847 16.385"><defs><style>.a{fill:#d97d54;}</style></defs><g transform="translate(0 -64)"><g transform="translate(0 64)"><path class="a" d="M21.391,69.917a.455.455,0,0,0,.455-.455V65.821A1.822,1.822,0,0,0,20.026,64H1.821A1.822,1.822,0,0,0,0,65.821v3.641a.455.455,0,0,0,.455.455,2.276,2.276,0,1,1,0,4.551A.455.455,0,0,0,0,74.923v3.641a1.822,1.822,0,0,0,1.821,1.821H20.026a1.822,1.822,0,0,0,1.821-1.821V74.923a.455.455,0,0,0-.455-.455,2.276,2.276,0,1,1,0-4.551Zm-3.186,2.276a3.191,3.191,0,0,0,2.731,3.154v3.218a.911.911,0,0,1-.91.91H1.821a.911.911,0,0,1-.91-.91V75.346a3.186,3.186,0,0,0,0-6.307V65.821a.911.911,0,0,1,.91-.91H20.026a.911.911,0,0,1,.91.91v3.218A3.191,3.191,0,0,0,18.206,72.192Z" transform="translate(0 -64)"/><path class="a" d="M128.455,104a.455.455,0,0,0-.455.455v1.024a.455.455,0,0,0,.91,0v-1.024A.455.455,0,0,0,128.455,104Z" transform="translate(-122.538 -102.293)"/><path class="a" d="M128.455,192a.455.455,0,0,0-.455.455v.91a.455.455,0,0,0,.91,0v-.91A.455.455,0,0,0,128.455,192Z" transform="translate(-122.538 -186.538)"/><path class="a" d="M128.455,277.333a.455.455,0,0,0-.455.455v.91a.455.455,0,0,0,.91,0v-.91A.455.455,0,0,0,128.455,277.333Z" transform="translate(-122.538 -268.23)"/><path class="a" d="M128.455,362.667a.455.455,0,0,0-.455.455v.91a.455.455,0,0,0,.91,0v-.91A.455.455,0,0,0,128.455,362.667Z" transform="translate(-122.538 -349.923)"/><path class="a" d="M219.5,149.406a.455.455,0,0,0-.631.126l-5.462,8.192a.455.455,0,1,0,.757.5l5.462-8.192A.455.455,0,0,0,219.5,149.406Z" transform="translate(-204.227 -145.689)"/><path class="a" d="M195.641,151.61a1.866,1.866,0,1,0-1.821,2.276A2.089,2.089,0,0,0,195.641,151.61Zm-2.731,0c0-.74.417-1.365.91-1.365s.91.625.91,1.365-.417,1.365-.91,1.365S192.91,152.35,192.91,151.61Z" transform="translate(-183.808 -145.693)"/><path class="a" d="M300.487,256a2.333,2.333,0,1,0,1.821,2.276A2.089,2.089,0,0,0,300.487,256Zm0,3.641c-.493,0-.91-.625-.91-1.365s.417-1.365.91-1.365.91.625.91,1.365S300.98,259.641,300.487,259.641Z" transform="translate(-285.922 -247.808)"/></g></g></svg>