<?xml version="1.0" encoding="UTF-8"?>
<svg width="9px" height="12px" viewBox="0 0 9 12" version="1.1" xmlns="http://www.w3.org/2000/svg" xmlns:xlink="http://www.w3.org/1999/xlink">
    <!-- Generator: Sketch 55 (78076) - https://sketchapp.com -->
    <title>Shape</title>
    <desc>Created with Sketch.</desc>
    <g id="Page-1" stroke="none" stroke-width="1" fill="none" fill-rule="evenodd">
        <g id="Profile---Personal-Information" transform="translate(-299.000000, -198.000000)" fill="#9698A4" fill-rule="nonzero">
            <g id="Group" transform="translate(299.500000, 195.136505)">
                <g id="Group-2">
                    <path d="M4.07594937,3.70588235 C1.82845875,3.70588235 0,5.42610044 0,7.54052397 C0,10.1645897 3.64757539,14.0168715 3.80287415,14.1795831 C3.94874287,14.3324302 4.20341964,14.3321614 4.34902459,14.1795831 C4.50432334,14.0168715 8.15189873,10.1645897 8.15189873,7.54052397 C8.15185477,5.42610044 6.323418,3.70588235 4.07594937,3.70588235 Z M4.07594937,9.46983929 C2.94518099,9.46983929 2.02525843,8.6043534 2.02525843,7.54052397 C2.02525843,6.47669455 2.94520297,5.61122934 4.07594937,5.61122934 C5.20669576,5.61122934 6.12661832,6.47671523 6.12661832,7.54054465 C6.12661832,8.60437408 5.20669576,9.46983929 4.07594937,9.46983929 Z" id="Shape"></path>
                </g>
            </g>
        </g>
    </g>
</svg>