<svg width="185" height="32" viewBox="0 0 185 32" fill="none" xmlns="http://www.w3.org/2000/svg">
<path d="M48.7985 15.3802C50.0576 14.2829 50.8197 12.7534 50.8197 10.8249C50.8197 6.80155 47.5394 4.17476 43.4972 4.17476H34.4186V27.4501H44.1598C48.3015 27.4501 51.648 24.7568 51.648 20.6338C51.648 18.273 50.5215 16.4774 48.7985 15.3802ZM43.4972 9.16234C44.7231 9.16234 45.5183 10.0268 45.5183 11.2239C45.5183 12.4209 44.69 13.2854 43.4972 13.2854H39.7199V9.16234H43.4972ZM44.1598 22.4625H39.7199V18.007H44.1598C45.4852 18.007 46.3466 18.938 46.3466 20.2348C46.3466 21.5315 45.4852 22.4625 44.1598 22.4625Z" fill="white"/>
<path d="M54.1201 27.4501H59.0901V3.17725H54.1201V27.4501Z" fill="white"/>
<path d="M70.6791 27.9156C75.5497 27.9156 79.4594 24.0918 79.4594 19.1375C79.4594 14.1832 75.5497 10.3594 70.6791 10.3594C65.8084 10.3594 61.8987 14.1832 61.8987 19.1375C61.8987 24.0918 65.8084 27.9156 70.6791 27.9156ZM70.6791 23.061C68.5254 23.061 66.8687 21.4983 66.8687 19.1375C66.8687 16.7767 68.5254 15.2139 70.6791 15.2139C72.8327 15.2139 74.4894 16.7767 74.4894 19.1375C74.4894 21.4983 72.8327 23.061 70.6791 23.061Z" fill="white"/>
<path d="M90.2226 27.9156C95.0933 27.9156 99.003 24.0918 99.003 19.1375C99.003 14.1832 95.0933 10.3594 90.2226 10.3594C85.352 10.3594 81.4423 14.1832 81.4423 19.1375C81.4423 24.0918 85.352 27.9156 90.2226 27.9156ZM90.2226 23.061C88.069 23.061 86.4123 21.4983 86.4123 19.1375C86.4123 16.7767 88.069 15.2139 90.2226 15.2139C92.3763 15.2139 94.033 16.7767 94.033 19.1375C94.033 21.4983 92.3763 23.061 90.2226 23.061Z" fill="white"/>
<path d="M120.369 10.3594C118.016 10.3594 116.492 11.2239 115.565 12.5539C114.637 11.1574 113.179 10.3594 111.224 10.3594C109.004 10.3594 107.546 11.2239 106.784 12.3544V10.8249H101.814V27.4501H106.784V18.0735C106.784 16.1117 107.712 14.9479 109.369 14.9479C110.959 14.9479 111.754 16.0119 111.754 17.6745V27.4501H116.724V18.0735C116.724 16.1117 117.652 14.9479 119.309 14.9479C120.899 14.9479 121.694 16.0119 121.694 17.6745V27.4501H126.664V17.2422C126.664 13.0859 124.179 10.3594 120.369 10.3594Z" fill="white"/>
<path d="M145.966 27.4501L139.77 19.1375L145.8 10.8249H140.002L135.032 18.1067V4.17476H130.062V27.4501H135.032V20.1018L140.333 27.4501H145.966Z" fill="white"/>
<path d="M150.278 9.36184C151.902 9.36184 153.26 7.99857 153.26 6.36929C153.26 4.74002 151.902 3.37675 150.278 3.37675C148.655 3.37675 147.296 4.74002 147.296 6.36929C147.296 7.99857 148.655 9.36184 150.278 9.36184ZM147.793 27.4501H152.763V10.8249H147.793V27.4501Z" fill="white"/>
<path d="M166.108 15.6129V10.8249H162.696V6.16979L157.726 7.66606V10.8249H155.075V15.6129H157.726V21.4983C157.726 26.1533 159.614 28.1151 166.108 27.4501V22.928C163.922 23.061 162.696 22.928 162.696 21.4983V15.6129H166.108Z" fill="white"/>
<path d="M173.039 21.1325H184.801C184.934 20.5008 185 19.8357 185 19.1375C185 14.1167 181.422 10.3594 176.584 10.3594C171.349 10.3594 167.771 14.1832 167.771 19.1375C167.771 24.0918 171.283 27.9156 176.949 27.9156C180.096 27.9156 182.548 26.7519 184.172 24.4908L180.196 22.1965C179.533 22.928 178.373 23.4601 177.015 23.4601C175.192 23.4601 173.668 22.8615 173.039 21.1325ZM172.939 17.4085C173.403 15.7127 174.662 14.7817 176.551 14.7817C178.042 14.7817 179.533 15.4799 180.063 17.4085H172.939Z" fill="white"/>
<path fill-rule="evenodd" clip-rule="evenodd" d="M2.38914 8.80816L11.5873 0L20.7855 8.80816C17.4742 11.2141 12.0779 17.0046 11.5873 20.3077C10.9741 16.76 5.57785 11.0918 2.38914 8.80816ZM0.00350818 20.6522V10.7511C9.89539 15.6405 10.8329 26.8047 10.0651 31.7756C8.89326 31.0014 5.79802 29.062 2.79166 27.4974C-0.0363791 26.0256 -0.0110385 22.6717 0.00192252 20.9563C0.00273975 20.8481 0.00350777 20.7464 0.00350818 20.6522ZM23.1712 20.6522V10.7511C13.2793 15.6405 12.3418 26.8047 13.1096 31.7756C14.2814 31.0014 17.3767 29.062 20.383 27.4974C23.2111 26.0256 23.1857 22.6717 23.1728 20.9562C23.1719 20.8481 23.1712 20.7464 23.1712 20.6522Z" fill="white"/>
</svg>
