<svg xmlns="http://www.w3.org/2000/svg" width="19.332" height="18.421" viewBox="0 0 19.332 18.421"><defs><style>.a{fill:#001a31;opacity:0.7;}</style></defs><path class="a" d="M3.906,19.737a.346.346,0,0,1-.341-.4L4.635,13.1.1,8.682A.346.346,0,0,1,.3,8.092l6.26-.91,2.8-5.673a.346.346,0,0,1,.31-.193h0a.345.345,0,0,1,.31.193l2.8,5.673,6.26.91a.346.346,0,0,1,.192.59L14.7,13.1l1.069,6.235a.346.346,0,0,1-.5.365l-5.6-2.943L4.067,19.7A.349.349,0,0,1,3.906,19.737ZM1.09,8.676l4.158,4.053a.346.346,0,0,1,.1.306l-.982,5.723,5.14-2.7a.345.345,0,0,1,.322,0l5.139,2.7-.981-5.723a.346.346,0,0,1,.1-.306l4.158-4.053L12.5,7.841a.346.346,0,0,1-.261-.189L9.667,2.445,7.1,7.652a.346.346,0,0,1-.261.189Z" transform="translate(0 -1.317)"/></svg>