<svg xmlns="http://www.w3.org/2000/svg" width="50.746" height="30.089" viewBox="0 0 50.746 30.089"><defs><style>.a{opacity:0.7;}.b{fill:#fff;}</style></defs><g class="a" transform="translate(0 -104.209)"><g transform="translate(0 104.209)"><g transform="translate(0 0)"><path class="b" d="M48.413,104.209H2.332A2.335,2.335,0,0,0,0,106.542v6.994a1.915,1.915,0,0,0,.89,1.624,4.787,4.787,0,0,1,2.288,4.094A4.786,4.786,0,0,1,.89,123.347,1.915,1.915,0,0,0,0,124.971v6.994A2.335,2.335,0,0,0,2.332,134.3H48.413a2.335,2.335,0,0,0,2.332-2.332V106.542A2.335,2.335,0,0,0,48.413,104.209Zm.846,27.756a.847.847,0,0,1-.846.846h-36.6v-.051a.743.743,0,0,0-1.487,0v.051h-8a.847.847,0,0,1-.846-.846v-6.994a.42.42,0,0,1,.185-.36,6.264,6.264,0,0,0,2.993-5.358A6.264,6.264,0,0,0,1.672,113.9a.42.42,0,0,1-.185-.36v-6.994a.847.847,0,0,1,.846-.846h8v.051a.743.743,0,0,0,1.487,0V105.7h36.6a.847.847,0,0,1,.846.846Z" transform="translate(0 -104.209)"/></g></g><g transform="translate(10.329 117.716)"><g transform="translate(0 0)"><path class="b" d="M104.953,240.485a.743.743,0,0,0-.743.743v1.589a.743.743,0,1,0,1.487,0v-1.589A.743.743,0,0,0,104.953,240.485Z" transform="translate(-104.21 -240.485)"/></g></g><g transform="translate(10.329 108.182)"><path class="b" d="M104.953,144.292a.743.743,0,0,0-.743.743v1.589a.743.743,0,0,0,1.487,0v-1.589A.743.743,0,0,0,104.953,144.292Z" transform="translate(-104.21 -144.292)"/></g><g transform="translate(10.329 112.949)"><g transform="translate(0 0)"><path class="b" d="M104.953,192.387a.743.743,0,0,0-.743.743v1.589a.743.743,0,1,0,1.487,0V193.13A.743.743,0,0,0,104.953,192.387Z" transform="translate(-104.21 -192.387)"/></g></g><g transform="translate(10.329 122.483)"><g transform="translate(0 0)"><path class="b" d="M104.953,288.581a.743.743,0,0,0-.743.743v1.589a.743.743,0,1,0,1.487,0v-1.589A.743.743,0,0,0,104.953,288.581Z" transform="translate(-104.21 -288.581)"/></g></g><g transform="translate(10.329 127.25)"><g transform="translate(0 0)"><path class="b" d="M104.953,336.677a.743.743,0,0,0-.743.743v1.589a.743.743,0,1,0,1.487,0V337.42A.743.743,0,0,0,104.953,336.677Z" transform="translate(-104.21 -336.677)"/></g></g><g transform="translate(20.658 109.771)"><g transform="translate(0 0)"><path class="b" d="M227.568,167.243a1.923,1.923,0,0,0-1.707-1.331l-4.386-.3-1.638-4.079a1.932,1.932,0,0,0-3.586,0l-1.638,4.079-4.386.3a1.932,1.932,0,0,0-1.108,3.411l3.373,2.818-1.073,4.263a1.932,1.932,0,0,0,2.9,2.108l3.723-2.337,3.723,2.337a1.932,1.932,0,0,0,2.9-2.108l-1.072-4.263,3.373-2.818A1.923,1.923,0,0,0,227.568,167.243Zm-1.552.939-3.731,3.118a.743.743,0,0,0-.244.752l1.186,4.715a.445.445,0,0,1-.669.486l-4.118-2.585a.744.744,0,0,0-.79,0l-4.118,2.585a.445.445,0,0,1-.669-.486l1.186-4.715a.743.743,0,0,0-.244-.752l-3.731-3.118a.445.445,0,0,1,.256-.786l4.851-.329a.743.743,0,0,0,.639-.465l1.812-4.512a.446.446,0,0,1,.827,0l1.812,4.512a.743.743,0,0,0,.639.465l4.851.329a.446.446,0,0,1,.256.786Z" transform="translate(-208.425 -160.324)"/></g></g></g></svg>