<?xml version="1.0" encoding="UTF-8"?>
<svg width="31px" height="22px" viewBox="0 0 31 22" version="1.1" xmlns="http://www.w3.org/2000/svg" xmlns:xlink="http://www.w3.org/1999/xlink">
    <!-- Generator: Sketch 55 (78076) - https://sketchapp.com -->
    <title>Group 4</title>
    <desc>Created with Sketch.</desc>
    <defs>
        <polygon id="path-1" points="0.0657349398 0.13146988 6.31055422 0.13146988 6.31055422 6.37627272 0.0657349398 6.37627272"></polygon>
        <polygon id="path-3" points="1.64337349e-05 -6.57349398e-05 11.3064096 -6.57349398e-05 11.3064096 6.73776559 1.64337349e-05 6.73776559"></polygon>
        <polygon id="path-5" points="0.0657349398 0.13146988 6.31055422 0.13146988 6.31055422 6.37627272 0.0657349398 6.37627272"></polygon>
        <polygon id="path-7" points="1.64337349e-05 -6.57349398e-05 11.3064096 -6.57349398e-05 11.3064096 6.73776559 1.64337349e-05 6.73776559"></polygon>
        <polygon id="path-9" points="0.0657349398 0.13146988 6.31055422 0.13146988 6.31055422 6.37627272 0.0657349398 6.37627272"></polygon>
        <polygon id="path-11" points="1.64337349e-05 -6.57349398e-05 11.3064096 -6.57349398e-05 11.3064096 6.73776559 1.64337349e-05 6.73776559"></polygon>
    </defs>
    <g id="Page-1" stroke="none" stroke-width="1" fill="none" fill-rule="evenodd">
        <g id="Sign-Up" transform="translate(-789.000000, -283.000000)">
            <g id="Group-4" transform="translate(789.000000, 283.500000)">
                <g id="Group-7-Copy" transform="translate(0.000000, 7.333333)">
                    <g id="Group-3" transform="translate(2.465060, 0.032867)">
                        <mask id="mask-2" fill="white">
                            <use xlink:href="#path-1"></use>
                        </mask>
                        <g id="Clip-2"></g>
                        <path d="M3.18814458,6.37627272 C4.91368675,6.37627272 6.31055422,4.97940525 6.31055422,3.25386308 C6.31055422,1.52832092 4.91368675,0.131453446 3.18814458,0.131453446 C1.46260241,0.131453446 0.0657349398,1.52832092 0.0657349398,3.25386308 C0.0657349398,4.97940525 1.46260241,6.37627272 3.18814458,6.37627272" id="Fill-1" fill="#218FC3" mask="url(#mask-2)"></path>
                    </g>
                    <g id="Group-6" transform="translate(0.000000, 6.770699)">
                        <mask id="mask-4" fill="white">
                            <use xlink:href="#path-3"></use>
                        </mask>
                        <g id="Clip-5"></g>
                        <path d="M0.493028482,6.73776559 L10.813414,6.73776559 C11.0927875,6.73776559 11.3064261,6.52412704 11.3064261,6.24475354 L11.3064261,4.4370427 C11.3064261,1.98858053 9.31794414,-6.57349398e-05 6.86931764,-6.57349398e-05 L4.43712487,-6.57349398e-05 C1.98849836,-6.57349398e-05 1.64337349e-05,1.98858053 1.64337349e-05,4.4370427 L1.64337349e-05,6.24475354 C1.64337349e-05,6.52412704 0.213654988,6.73776559 0.493028482,6.73776559" id="Fill-4" fill="#218FC3" mask="url(#mask-4)"></path>
                    </g>
                </g>
                <g id="Group-7-Copy-2" transform="translate(9.219820, 0.000000)">
                    <g id="Group-3" transform="translate(2.465060, 0.032867)">
                        <mask id="mask-6" fill="white">
                            <use xlink:href="#path-5"></use>
                        </mask>
                        <g id="Clip-2"></g>
                        <path d="M3.18814458,6.37627272 C4.91368675,6.37627272 6.31055422,4.97940525 6.31055422,3.25386308 C6.31055422,1.52832092 4.91368675,0.131453446 3.18814458,0.131453446 C1.46260241,0.131453446 0.0657349398,1.52832092 0.0657349398,3.25386308 C0.0657349398,4.97940525 1.46260241,6.37627272 3.18814458,6.37627272" id="Fill-1" fill="#218FC3" mask="url(#mask-6)"></path>
                    </g>
                    <g id="Group-6" transform="translate(0.000000, 6.770699)">
                        <mask id="mask-8" fill="white">
                            <use xlink:href="#path-7"></use>
                        </mask>
                        <g id="Clip-5"></g>
                        <path d="M0.493028482,6.73776559 L10.813414,6.73776559 C11.0927875,6.73776559 11.3064261,6.52412704 11.3064261,6.24475354 L11.3064261,4.4370427 C11.3064261,1.98858053 9.31794414,-6.57349398e-05 6.86931764,-6.57349398e-05 L4.43712487,-6.57349398e-05 C1.98849836,-6.57349398e-05 1.64337349e-05,1.98858053 1.64337349e-05,4.4370427 L1.64337349e-05,6.24475354 C1.64337349e-05,6.52412704 0.213654988,6.73776559 0.493028482,6.73776559" id="Fill-4" fill="#218FC3" mask="url(#mask-8)"></path>
                    </g>
                </g>
                <g id="Group-7-Copy-3" transform="translate(18.849024, 7.333333)">
                    <g id="Group-3" transform="translate(2.465060, 0.032867)">
                        <mask id="mask-10" fill="white">
                            <use xlink:href="#path-9"></use>
                        </mask>
                        <g id="Clip-2"></g>
                        <path d="M3.18814458,6.37627272 C4.91368675,6.37627272 6.31055422,4.97940525 6.31055422,3.25386308 C6.31055422,1.52832092 4.91368675,0.131453446 3.18814458,0.131453446 C1.46260241,0.131453446 0.0657349398,1.52832092 0.0657349398,3.25386308 C0.0657349398,4.97940525 1.46260241,6.37627272 3.18814458,6.37627272" id="Fill-1" fill="#218FC3" mask="url(#mask-10)"></path>
                    </g>
                    <g id="Group-6" transform="translate(0.000000, 6.770699)">
                        <mask id="mask-12" fill="white">
                            <use xlink:href="#path-11"></use>
                        </mask>
                        <g id="Clip-5"></g>
                        <path d="M0.493028482,6.73776559 L10.813414,6.73776559 C11.0927875,6.73776559 11.3064261,6.52412704 11.3064261,6.24475354 L11.3064261,4.4370427 C11.3064261,1.98858053 9.31794414,-6.57349398e-05 6.86931764,-6.57349398e-05 L4.43712487,-6.57349398e-05 C1.98849836,-6.57349398e-05 1.64337349e-05,1.98858053 1.64337349e-05,4.4370427 L1.64337349e-05,6.24475354 C1.64337349e-05,6.52412704 0.213654988,6.73776559 0.493028482,6.73776559" id="Fill-4" fill="#218FC3" mask="url(#mask-12)"></path>
                    </g>
                </g>
            </g>
        </g>
    </g>
</svg>